<mxfile host="app.diagrams.net" modified="2022-08-19T03:43:28.793Z" agent="5.0 (Windows NT 10.0; Win64; x64) AppleWebKit/537.36 (KHTML, like Gecko) Chrome/104.0.5112.81 Safari/537.36 Edg/104.0.1293.54" etag="i6uSJGOAsNCch7kuckZT" version="20.2.4" type="github">
  <diagram id="gdBC5hrIDmrJ_rc8bYnI" name="第 1 页">
    <mxGraphModel dx="1422" dy="794" grid="1" gridSize="10" guides="1" tooltips="1" connect="1" arrows="1" fold="1" page="1" pageScale="1" pageWidth="827" pageHeight="1169" math="0" shadow="0">
      <root>
        <mxCell id="0" />
        <mxCell id="1" parent="0" />
        <mxCell id="TGDUGQfe8ln71xcxTlbK-18" style="edgeStyle=orthogonalEdgeStyle;rounded=0;orthogonalLoop=1;jettySize=auto;html=1;exitX=0.5;exitY=1;exitDx=0;exitDy=0;" edge="1" parent="1" source="TGDUGQfe8ln71xcxTlbK-2" target="TGDUGQfe8ln71xcxTlbK-17">
          <mxGeometry relative="1" as="geometry" />
        </mxCell>
        <mxCell id="TGDUGQfe8ln71xcxTlbK-20" style="edgeStyle=orthogonalEdgeStyle;rounded=0;orthogonalLoop=1;jettySize=auto;html=1;exitX=0.5;exitY=1;exitDx=0;exitDy=0;entryX=0.5;entryY=0;entryDx=0;entryDy=0;" edge="1" parent="1" source="TGDUGQfe8ln71xcxTlbK-2" target="TGDUGQfe8ln71xcxTlbK-11">
          <mxGeometry relative="1" as="geometry" />
        </mxCell>
        <mxCell id="TGDUGQfe8ln71xcxTlbK-22" style="edgeStyle=orthogonalEdgeStyle;rounded=0;orthogonalLoop=1;jettySize=auto;html=1;exitX=0.5;exitY=1;exitDx=0;exitDy=0;entryX=0.5;entryY=0;entryDx=0;entryDy=0;" edge="1" parent="1" source="TGDUGQfe8ln71xcxTlbK-2" target="TGDUGQfe8ln71xcxTlbK-15">
          <mxGeometry relative="1" as="geometry" />
        </mxCell>
        <mxCell id="TGDUGQfe8ln71xcxTlbK-24" style="edgeStyle=orthogonalEdgeStyle;rounded=0;orthogonalLoop=1;jettySize=auto;html=1;exitX=0.5;exitY=1;exitDx=0;exitDy=0;entryX=0.5;entryY=0;entryDx=0;entryDy=0;" edge="1" parent="1" source="TGDUGQfe8ln71xcxTlbK-2" target="TGDUGQfe8ln71xcxTlbK-13">
          <mxGeometry relative="1" as="geometry" />
        </mxCell>
        <mxCell id="TGDUGQfe8ln71xcxTlbK-27" style="edgeStyle=orthogonalEdgeStyle;rounded=0;orthogonalLoop=1;jettySize=auto;html=1;exitX=0.5;exitY=1;exitDx=0;exitDy=0;entryX=0.5;entryY=0;entryDx=0;entryDy=0;" edge="1" parent="1" source="TGDUGQfe8ln71xcxTlbK-2" target="TGDUGQfe8ln71xcxTlbK-16">
          <mxGeometry relative="1" as="geometry">
            <Array as="points">
              <mxPoint x="445" y="140" />
              <mxPoint x="200" y="140" />
            </Array>
          </mxGeometry>
        </mxCell>
        <mxCell id="TGDUGQfe8ln71xcxTlbK-28" style="edgeStyle=orthogonalEdgeStyle;rounded=0;orthogonalLoop=1;jettySize=auto;html=1;exitX=0.5;exitY=1;exitDx=0;exitDy=0;entryX=0.5;entryY=0;entryDx=0;entryDy=0;" edge="1" parent="1" source="TGDUGQfe8ln71xcxTlbK-2" target="TGDUGQfe8ln71xcxTlbK-14">
          <mxGeometry relative="1" as="geometry" />
        </mxCell>
        <mxCell id="TGDUGQfe8ln71xcxTlbK-29" style="edgeStyle=orthogonalEdgeStyle;rounded=0;orthogonalLoop=1;jettySize=auto;html=1;exitX=0.5;exitY=1;exitDx=0;exitDy=0;entryX=0.5;entryY=0;entryDx=0;entryDy=0;" edge="1" parent="1" source="TGDUGQfe8ln71xcxTlbK-2" target="TGDUGQfe8ln71xcxTlbK-12">
          <mxGeometry relative="1" as="geometry">
            <Array as="points">
              <mxPoint x="445" y="140" />
              <mxPoint x="685" y="140" />
            </Array>
          </mxGeometry>
        </mxCell>
        <mxCell id="TGDUGQfe8ln71xcxTlbK-2" value="&lt;span style=&quot;color: rgb(51, 51, 51); font-family: &amp;quot;Open Sans&amp;quot;, &amp;quot;Clear Sans&amp;quot;, &amp;quot;Helvetica Neue&amp;quot;, Helvetica, Arial, sans-serif; font-size: 16px; orphans: 4; text-align: left; background-color: rgb(255, 255, 255);&quot;&gt;↕(w0)↑(r0,w1)↑(r1,w0)↕(r0)↓(r0,w1)↓(r1,w0)↕(r0)&lt;/span&gt;" style="rounded=1;whiteSpace=wrap;html=1;glass=0;" vertex="1" parent="1">
          <mxGeometry x="260" y="80" width="370" height="40" as="geometry" />
        </mxCell>
        <mxCell id="TGDUGQfe8ln71xcxTlbK-11" value="&lt;span style=&quot;color: rgb(51, 51, 51); font-family: &amp;quot;Open Sans&amp;quot;, &amp;quot;Clear Sans&amp;quot;, &amp;quot;Helvetica Neue&amp;quot;, Helvetica, Arial, sans-serif; font-size: 16px; orphans: 4; text-align: left; background-color: rgb(255, 255, 255);&quot;&gt;&amp;lt;0&amp;gt;↕r0&amp;lt;0&amp;gt;&lt;/span&gt;" style="rounded=1;whiteSpace=wrap;html=1;glass=0;" vertex="1" parent="1">
          <mxGeometry x="750" y="160" width="90" height="40" as="geometry" />
        </mxCell>
        <mxCell id="TGDUGQfe8ln71xcxTlbK-12" value="&lt;span style=&quot;color: rgb(51, 51, 51); font-family: &amp;quot;Open Sans&amp;quot;, &amp;quot;Clear Sans&amp;quot;, &amp;quot;Helvetica Neue&amp;quot;, Helvetica, Arial, sans-serif; font-size: 16px; orphans: 4; text-align: left; background-color: rgb(255, 255, 255);&quot;&gt;&amp;lt;1&amp;gt;↓r1&amp;lt;1&amp;gt;&lt;br&gt;&lt;/span&gt;&lt;span style=&quot;color: rgb(51, 51, 51); font-family: &amp;quot;Open Sans&amp;quot;, &amp;quot;Clear Sans&amp;quot;, &amp;quot;Helvetica Neue&amp;quot;, Helvetica, Arial, sans-serif; font-size: 16px; orphans: 4; text-align: left; background-color: rgb(255, 255, 255);&quot;&gt;&amp;lt;1&amp;gt;↓&lt;/span&gt;&lt;span style=&quot;color: rgb(51, 51, 51); font-family: &amp;quot;Open Sans&amp;quot;, &amp;quot;Clear Sans&amp;quot;, &amp;quot;Helvetica Neue&amp;quot;, Helvetica, Arial, sans-serif; font-size: 16px; orphans: 4; text-align: left; background-color: rgb(255, 255, 255);&quot;&gt;w0&amp;lt;1,0,0&amp;gt;&lt;/span&gt;" style="rounded=1;whiteSpace=wrap;html=1;glass=0;" vertex="1" parent="1">
          <mxGeometry x="640" y="200" width="90" height="40" as="geometry" />
        </mxCell>
        <mxCell id="TGDUGQfe8ln71xcxTlbK-13" value="&lt;span style=&quot;color: rgb(51, 51, 51); font-family: &amp;quot;Open Sans&amp;quot;, &amp;quot;Clear Sans&amp;quot;, &amp;quot;Helvetica Neue&amp;quot;, Helvetica, Arial, sans-serif; font-size: 16px; orphans: 4; text-align: left; background-color: rgb(255, 255, 255);&quot;&gt;&amp;lt;0&amp;gt;↓r0&amp;lt;0&amp;gt;&lt;br&gt;&lt;/span&gt;&lt;span style=&quot;color: rgb(51, 51, 51); font-family: &amp;quot;Open Sans&amp;quot;, &amp;quot;Clear Sans&amp;quot;, &amp;quot;Helvetica Neue&amp;quot;, Helvetica, Arial, sans-serif; font-size: 16px; orphans: 4; text-align: left; background-color: rgb(255, 255, 255);&quot;&gt;&amp;lt;0&amp;gt;↓&lt;/span&gt;&lt;span style=&quot;color: rgb(51, 51, 51); font-family: &amp;quot;Open Sans&amp;quot;, &amp;quot;Clear Sans&amp;quot;, &amp;quot;Helvetica Neue&amp;quot;, Helvetica, Arial, sans-serif; font-size: 16px; orphans: 4; text-align: left; background-color: rgb(255, 255, 255);&quot;&gt;w1&amp;lt;0,1,1&amp;gt;&lt;/span&gt;" style="rounded=1;whiteSpace=wrap;html=1;glass=0;" vertex="1" parent="1">
          <mxGeometry x="520" y="160" width="90" height="40" as="geometry" />
        </mxCell>
        <mxCell id="TGDUGQfe8ln71xcxTlbK-14" value="&lt;span style=&quot;color: rgb(51, 51, 51); font-family: &amp;quot;Open Sans&amp;quot;, &amp;quot;Clear Sans&amp;quot;, &amp;quot;Helvetica Neue&amp;quot;, Helvetica, Arial, sans-serif; font-size: 16px; orphans: 4; text-align: left; background-color: rgb(255, 255, 255);&quot;&gt;&amp;lt;0&amp;gt;↕r0&amp;lt;0&amp;gt;&lt;/span&gt;" style="rounded=1;whiteSpace=wrap;html=1;glass=0;" vertex="1" parent="1">
          <mxGeometry x="400" y="200" width="90" height="40" as="geometry" />
        </mxCell>
        <mxCell id="TGDUGQfe8ln71xcxTlbK-15" value="&lt;span style=&quot;color: rgb(51, 51, 51); font-family: &amp;quot;Open Sans&amp;quot;, &amp;quot;Clear Sans&amp;quot;, &amp;quot;Helvetica Neue&amp;quot;, Helvetica, Arial, sans-serif; font-size: 16px; orphans: 4; text-align: left; background-color: rgb(255, 255, 255);&quot;&gt;&amp;lt;0,1,1&amp;gt;↑r1&amp;lt;0,1,1&amp;gt;&lt;br&gt;&lt;/span&gt;&lt;span style=&quot;color: rgb(51, 51, 51); font-family: &amp;quot;Open Sans&amp;quot;, &amp;quot;Clear Sans&amp;quot;, &amp;quot;Helvetica Neue&amp;quot;, Helvetica, Arial, sans-serif; font-size: 16px; orphans: 4; text-align: left; background-color: rgb(255, 255, 255);&quot;&gt;&amp;lt;0,1,1&amp;gt;↑&lt;/span&gt;&lt;span style=&quot;color: rgb(51, 51, 51); font-family: &amp;quot;Open Sans&amp;quot;, &amp;quot;Clear Sans&amp;quot;, &amp;quot;Helvetica Neue&amp;quot;, Helvetica, Arial, sans-serif; font-size: 16px; orphans: 4; text-align: left; background-color: rgb(255, 255, 255);&quot;&gt;w0&amp;lt;0,0,1&amp;gt;&lt;/span&gt;" style="rounded=1;whiteSpace=wrap;html=1;glass=0;" vertex="1" parent="1">
          <mxGeometry x="280" y="160" width="90" height="40" as="geometry" />
        </mxCell>
        <mxCell id="TGDUGQfe8ln71xcxTlbK-16" value="&lt;span style=&quot;color: rgb(51, 51, 51); font-family: &amp;quot;Open Sans&amp;quot;, &amp;quot;Clear Sans&amp;quot;, &amp;quot;Helvetica Neue&amp;quot;, Helvetica, Arial, sans-serif; font-size: 16px; orphans: 4; text-align: left; background-color: rgb(255, 255, 255);&quot;&gt;&amp;lt;1,0,0&amp;gt;↑r0&amp;lt;1,0,0&amp;gt;&lt;br&gt;&lt;/span&gt;&lt;span style=&quot;color: rgb(51, 51, 51); font-family: &amp;quot;Open Sans&amp;quot;, &amp;quot;Clear Sans&amp;quot;, &amp;quot;Helvetica Neue&amp;quot;, Helvetica, Arial, sans-serif; font-size: 16px; orphans: 4; text-align: left; background-color: rgb(255, 255, 255);&quot;&gt;&amp;lt;1,0,0&amp;gt;↑&lt;/span&gt;&lt;span style=&quot;color: rgb(51, 51, 51); font-family: &amp;quot;Open Sans&amp;quot;, &amp;quot;Clear Sans&amp;quot;, &amp;quot;Helvetica Neue&amp;quot;, Helvetica, Arial, sans-serif; font-size: 16px; orphans: 4; text-align: left; background-color: rgb(255, 255, 255);&quot;&gt;w1&amp;lt;1,1,0&amp;gt;&lt;/span&gt;" style="rounded=1;whiteSpace=wrap;html=1;glass=0;" vertex="1" parent="1">
          <mxGeometry x="150" y="200" width="100" height="40" as="geometry" />
        </mxCell>
        <mxCell id="TGDUGQfe8ln71xcxTlbK-17" value="&lt;span style=&quot;color: rgb(51, 51, 51); font-family: &amp;quot;Open Sans&amp;quot;, &amp;quot;Clear Sans&amp;quot;, &amp;quot;Helvetica Neue&amp;quot;, Helvetica, Arial, sans-serif; font-size: 16px; orphans: 4; text-align: left; background-color: rgb(255, 255, 255);&quot;&gt;&amp;lt;x,x,x&amp;gt;↕w0&amp;lt;0,0,x&amp;gt;&lt;/span&gt;" style="rounded=1;whiteSpace=wrap;html=1;glass=0;" vertex="1" parent="1">
          <mxGeometry x="20" y="160" width="100" height="40" as="geometry" />
        </mxCell>
        <mxCell id="TGDUGQfe8ln71xcxTlbK-26" value="&lt;table border=&quot;1&quot; width=&quot;100%&quot; height=&quot;100%&quot; cellpadding=&quot;4&quot; style=&quot;width:100%;height:100%;border-collapse:collapse;&quot;&gt;&lt;tbody&gt;&lt;tr&gt;&lt;th style=&quot;background-color: rgb(230, 208, 222);&quot; align=&quot;center&quot;&gt;&lt;span style=&quot;color: rgb(51, 51, 51); font-family: &amp;quot;Open Sans&amp;quot;, &amp;quot;Clear Sans&amp;quot;, &amp;quot;Helvetica Neue&amp;quot;, Helvetica, Arial, sans-serif; font-size: 16px; font-weight: 400; orphans: 4; text-align: left;&quot;&gt;&amp;lt;0&amp;gt;↑r0&amp;lt;0&amp;gt;&lt;/span&gt;&lt;br&gt;&lt;/th&gt;&lt;/tr&gt;&lt;tr&gt;&lt;td align=&quot;center&quot;&gt;&lt;span style=&quot;box-sizing: border-box; color: rgb(51, 51, 51); font-family: &amp;quot;Open Sans&amp;quot;, &amp;quot;Clear Sans&amp;quot;, &amp;quot;Helvetica Neue&amp;quot;, Helvetica, Arial, sans-serif; font-size: 16px; text-align: left; background-color: rgb(255, 255, 255);&quot; class=&quot;md-expand&quot;&gt;*&lt;/span&gt;&lt;span style=&quot;box-sizing: border-box; color: rgb(51, 51, 51); font-family: &amp;quot;Open Sans&amp;quot;, &amp;quot;Clear Sans&amp;quot;, &amp;quot;Helvetica Neue&amp;quot;, Helvetica, Arial, sans-serif; font-size: 16px; text-align: left; background-color: rgb(255, 255, 255);&quot; class=&quot;md-plain md-expand&quot;&gt;&amp;lt;x,0,x&amp;gt;↕r0*&lt;/span&gt;&lt;br&gt;&lt;/td&gt;&lt;/tr&gt;&lt;tr&gt;&lt;td align=&quot;center&quot;&gt;&lt;span style=&quot;box-sizing: border-box; color: rgb(51, 51, 51); font-family: &amp;quot;Open Sans&amp;quot;, &amp;quot;Clear Sans&amp;quot;, &amp;quot;Helvetica Neue&amp;quot;, Helvetica, Arial, sans-serif; font-size: 16px; text-align: left; background-color: rgb(248, 248, 248);&quot; class=&quot;md-plain md-expand&quot;&gt;*&amp;lt;0,0,x&amp;gt;↕r0&lt;/span&gt;&lt;span style=&quot;box-sizing: border-box; color: rgb(51, 51, 51); font-family: &amp;quot;Open Sans&amp;quot;, &amp;quot;Clear Sans&amp;quot;, &amp;quot;Helvetica Neue&amp;quot;, Helvetica, Arial, sans-serif; font-size: 16px; text-align: left; background-color: rgb(248, 248, 248);&quot; class=&quot;md-expand&quot;&gt;*&lt;/span&gt;&lt;br&gt;&lt;/td&gt;&lt;/tr&gt;&lt;tr&gt;&lt;td&gt;&lt;br&gt;&lt;/td&gt;&lt;/tr&gt;&lt;tr&gt;&lt;td&gt;&lt;br&gt;&lt;/td&gt;&lt;/tr&gt;&lt;/tbody&gt;&lt;/table&gt;" style="text;html=1;strokeColor=none;fillColor=none;overflow=fill;rounded=1;glass=0;" vertex="1" parent="1">
          <mxGeometry x="5" y="300" width="160" height="140" as="geometry" />
        </mxCell>
      </root>
    </mxGraphModel>
  </diagram>
</mxfile>
